# xmcd
#
# Track frame offsets:
#	150
#	13689
#	32756
#	50333
#	66897
#	81343
#	97252
#	116920
#	135787
#	152561
#	169727
#	184193
#
# Disc length: 2625 seconds
#
# Revision: 0
# Processed by: cddbd v1.5PL3 Copyright (c) Steve Scherf et al.
# Submitted via: dBpowerAMP V4.0
#
DISCID=9c0a3f0c
DTITLE=Kenny Rogers - The Greatest
DYEAR=1900
DGENRE=
TTITLE0=Ruby Don't Take Your Love To Town
TTITLE1=She Believes In Me
TTITLE2=Lady
TTITLE3=Lucille
TTITLE4=Daytime Friends
TTITLE5=The Gambler
TTITLE6=Coward Of The County
TTITLE7=Islands In The Stream
TTITLE8=Crazy
TTITLE9=Buy Me A Rose
TTITLE10=The Greatest
TTITLE11=There You Go  Again
EXTD=
EXTT0=
EXTT1=
EXTT2=
EXTT3=
EXTT4=
EXTT5=
EXTT6=
EXTT7=
EXTT8=
EXTT9=
EXTT10=
EXTT11=
PLAYORDER=
